#!OML:ASF H:\Dans Jumps\Project 1\Capture day 1\Session 1\subject.ASF
:FULLY-SPECIFIED
:DEGREES
605
root 0.261521 17.8029 -1.88155 6.8593 -1.25323 -1.26038
lowerback -2.99128 -0.729804 -0.308403
upperback 3.03069 -1.03782 1.78075
thorax 4.84799 -0.560601 1.94099
lowerneck -11.0627 1.07356 -1.65752
upperneck 38.3668 2.26135 -0.574995
head 15.2615 0.628878 0.406304
rclavicle -1.31198e-014 1.03368e-014
rhumerus -25.6717 -15.8441 -81.2391
rradius 23.0451
rwrist 33.4821
rhand -20.5471 -26.4639
rfingers 7.12502
rthumb 5.8116 -56.3642
lclavicle -1.31198e-014 1.03368e-014
lhumerus -21.6122 -5.96498 91.1468
lradius 17.4937
lwrist 4.34148
lhand -26.4258 -5.86901
lfingers 7.12502
lthumb 0.134446 24.1107
rfemur -14.0734 -2.54229 19.5247
rtibia 20.3398
rfoot -11.7416 -2.03584
rtoes 15.3066
lfemur -11.9248 6.89694 -17.5618
ltibia 16.1574
lfoot -8.95655 2.52693
ltoes 4.87606
606
root 0.262619 17.8027 -1.88071 6.85065 -1.26586 -1.25729
lowerback -2.98904 -0.729124 -0.307367
upperback 3.02793 -1.03714 1.78589
thorax 4.8439 -0.560296 1.94581
lowerneck -11.0703 1.07444 -1.65951
upperneck 38.3836 2.26496 -0.578406
head 15.2718 0.629343 0.405928
rclavicle -9.0944e-015 4.77083e-015
rhumerus -25.6469 -15.7951 -81.2446
rradius 23.0448
rwrist 33.4661
rhand -20.5489 -26.4652
rfingers 7.12502
rthumb 5.80987 -56.3656
lclavicle -9.0944e-015 4.77083e-015
lhumerus -21.5923 -6.03584 91.1674
lradius 17.5128
lwrist 4.37915
lhand -26.4568 -5.92407
lfingers 7.12502
lthumb 0.104522 24.0556
rfemur -14.0659 -2.5306 19.5165
rtibia 20.3452
rfoot -11.7434 -2.04137
rtoes 15.2823
lfemur -11.912 6.90269 -17.5685
ltibia 16.1616
lfoot -8.96465 2.53367
ltoes 4.87989
607
root 0.263528 17.8024 -1.87987 6.84381 -1.2794 -1.25896
lowerback -2.98894 -0.727242 -0.304368
upperback 3.02632 -1.03508 1.7932
thorax 4.84218 -0.559299 1.95186
lowerneck -11.0831 1.07302 -1.66356
upperneck 38.4023 2.26532 -0.580325
head 15.2841 0.628276 0.4061
rclavicle 1.19271e-015 3.97569e-015
rhumerus -25.6195 -15.7478 -81.2495
rradius 23.0417
rwrist 33.4472
rhand -20.5603 -26.459
rfingers 7.12502
rthumb 5.7989 -56.3596
lclavicle 1.19271e-015 3.97569e-015
lhumerus -21.5678 -6.09777 91.1861
lradius 17.5273
lwrist 4.40675
lhand -26.4797 -5.97397
lfingers 7.12502
lthumb 0.0824745 24.0058
rfemur -14.0614 -2.51333 19.5141
rtibia 20.3525
rfoot -11.7457 -2.05084
rtoes 15.2626
lfemur -11.901 6.90701 -17.5692
ltibia 16.1645
lfoot -8.97 2.54348
ltoes 4.87387
608
root 0.264669 17.8021 -1.87897 6.83474 -1.2907 -1.25091
lowerback -2.98698 -0.72661 -0.307683
upperback 3.02407 -1.03417 1.79659
thorax 4.83882 -0.559003 1.95732
lowerneck -11.0932 1.07379 -1.6721
upperneck 38.4227 2.26888 -0.578606
head 15.2966 0.628397 0.409101
rclavicle -4.37326e-015 9.93923e-015
rhumerus -25.5952 -15.7066 -81.2531
rradius 23.0419
rwrist 33.4375
rhand -20.5613 -26.4586
rfingers 7.12502
rthumb 5.79793 -56.3593
lclavicle -4.37326e-015 9.93923e-015
lhumerus -21.5498 -6.16975 91.2072
lradius 17.5457
lwrist 4.44607
lhand -26.4932 -5.98024
lfingers 7.12502
lthumb 0.0693677 23.9995
rfemur -14.0553 -2.5103 19.5006
rtibia 20.3624
rfoot -11.7504 -2.04943
rtoes 15.2369
lfemur -11.8865 6.9115 -17.5817
ltibia 16.1657
lfoot -8.97575 2.55046
ltoes 4.85646
609
root 0.265712 17.8018 -1.87806 6.82702 -1.30153 -1.24422
lowerback -2.9862 -0.725724 -0.311151
upperback 3.02192 -1.03295 1.80057
thorax 4.83623 -0.558573 1.9635
lowerneck -11.1047 1.07332 -1.68131
upperneck 38.4433 2.27072 -0.576631
head 15.3095 0.627715 0.412076
rclavicle 2.43511e-015 -8.34896e-015
rhumerus -25.5708 -15.666 -81.2566
rradius 23.0402
rwrist 33.4272
rhand -20.5703 -26.453
rfingers 7.12502
rthumb 5.78924 -56.354
lclavicle 2.43511e-015 -8.34896e-015
lhumerus -21.5333 -6.24796 91.2292
lradius 17.565
lwrist 4.49069
lhand -26.5 -5.97562
lfingers 7.12502
lthumb 0.0627806 24.0041
rfemur -14.0516 -2.50757 19.4893
rtibia 20.3737
rfoot -11.7559 -2.04758
rtoes 15.2142
lfemur -11.8736 6.92099 -17.5927
ltibia 16.1663
lfoot -8.98193 2.55275
ltoes 4.84029
610
root 0.26664 17.8014 -1.87717 6.81995 -1.31445 -1.23928
lowerback -2.98511 -0.723093 -0.314508
upperback 3.0192 -1.02941 1.80507
thorax 4.8328 -0.556992 1.97033
lowerneck -11.1108 1.07151 -1.69009
upperneck 38.4605 2.27071 -0.576029
head 15.3195 0.626234 0.41404
rclavicle -3.32964e-015 -2.78299e-015
rhumerus -25.5468 -15.632 -81.257
rradius 23.0331
rwrist 33.4253
rhand -20.5848 -26.4455
rfingers 7.12502
rthumb 5.77518 -56.3468
lclavicle -3.32964e-015 -2.78299e-015
lhumerus -21.5183 -6.32973 91.2522
lradius 17.5814
lwrist 4.54085
lhand -26.4984 -5.96532
lfingers 7.12502
lthumb 0.0643939 24.0144
rfemur -14.0493 -2.49888 19.4802
rtibia 20.3857
rfoot -11.7616 -2.04795
rtoes 15.1968
lfemur -11.8615 6.93165 -17.6013
ltibia 16.1664
lfoot -8.98635 2.55562
ltoes 4.82509
611
root 0.267545 17.8011 -1.87629 6.81389 -1.32657 -1.23555
lowerback -2.98498 -0.719861 -0.315805
upperback 3.01606 -1.02515 1.80908
thorax 4.8294 -0.55497 1.97553
lowerneck -11.1145 1.06906 -1.69909
upperneck 38.4771 2.2694 -0.574509
head 15.3285 0.624323 0.416204
rclavicle 1.04362e-014 -6.36111e-015
rhumerus -25.5218 -15.6093 -81.2553
rradius 23.0192
rwrist 33.4345
rhand -20.5999 -26.4382
rfingers 7.12502
rthumb 5.76069 -56.3399
lclavicle 1.04362e-014 -6.36111e-015
lhumerus -21.504 -6.41052 91.2738
lradius 17.5943
lwrist 4.58922
lhand -26.4875 -5.94465
lfingers 7.12502
lthumb 0.074864 24.0351
rfemur -14.0468 -2.4911 19.4727
rtibia 20.3956
rfoot -11.7665 -2.0482
rtoes 15.1803
lfemur -11.852 6.94534 -17.6088
ltibia 16.1689
lfoot -8.99179 2.55438
ltoes 4.81759
612
root 0.268408 17.8008 -1.8756 6.8089 -1.33774 -1.23513
lowerback -2.98271 -0.715741 -0.313245
upperback 3.01098 -1.01986 1.81309
thorax 4.82263 -0.552271 1.97866
lowerneck -11.1134 1.06603 -1.70736
upperneck 38.4919 2.26645 -0.571936
head 15.3356 0.622041 0.418373
rclavicle -1.45113e-014 4.37326e-015
rhumerus -25.5002 -15.5948 -81.2513
rradius 23.0036
rwrist 33.4514
rhand -20.6121 -26.4313
rfingers 7.12502
rthumb 5.74884 -56.3333
lclavicle -1.45113e-014 4.37326e-015
lhumerus -21.4929 -6.48689 91.2932
lradius 17.6065
lwrist 4.63426
lhand -26.4722 -5.91996
lfingers 7.12502
lthumb 0.0896453 24.0598
rfemur -14.045 -2.47962 19.4691
rtibia 20.4039
rfoot -11.7701 -2.05249
rtoes 15.1642
lfemur -11.845 6.95893 -17.6123
ltibia 16.1718
lfoot -8.99532 2.55214
ltoes 4.81573
613
root 0.269276 17.8006 -1.87495 6.80379 -1.34731 -1.23583
lowerback -2.98069 -0.711291 -0.308353
upperback 3.00524 -1.01423 1.81668
thorax 4.81526 -0.549303 1.98007
lowerneck -11.1084 1.06257 -1.71581
upperneck 38.5055 2.2622 -0.567855
head 15.3411 0.619435 0.42097
rclavicle 1.42131e-014 -9.93923e-015
rhumerus -25.4806 -15.5906 -81.2445
rradius 22.984
rwrist 33.4759
rhand -20.6256 -26.4178
rfingers 7.12502
rthumb 5.73584 -56.3202
lclavicle 1.42131e-014 -9.93923e-015
lhumerus -21.4814 -6.55552 91.3098
lradius 17.6129
lwrist 4.6708
lhand -26.4537 -5.89318
lfingers 7.12502
lthumb 0.107522 24.0865
rfemur -14.0419 -2.4682 19.4666
rtibia 20.4105
rfoot -11.7735 -2.05837
rtoes 15.152
lfemur -11.8376 6.96966 -17.6143
ltibia 16.1741
lfoot -8.99789 2.55055
ltoes 4.8138
614
root 0.270238 17.8004 -1.87423 6.79654 -1.35675 -1.23273
lowerback -2.97783 -0.706852 -0.305525
upperback 2.99991 -1.00841 1.81825
thorax 4.80781 -0.546279 1.98057
lowerneck -11.1012 1.05934 -1.72288
upperneck 38.5182 2.25759 -0.563183
head 15.3456 0.616986 0.423489
rclavicle 8.74653e-015 -1.98785e-015
rhumerus -25.4629 -15.5878 -81.2378
rradius 22.9655
rwrist 33.5012
rhand -20.6344 -26.4025
rfingers 7.12502
rthumb 5.72731 -56.3051
lclavicle 8.74653e-015 -1.98785e-015
lhumerus -21.4707 -6.61117 91.3231
lradius 17.6154
lwrist 4.69536
lhand -26.4368 -5.86349
lfingers 7.12502
lthumb 0.123909 24.1162
rfemur -14.0357 -2.46278 19.4594
rtibia 20.4167
rfoot -11.7774 -2.05811
rtoes 15.1353
lfemur -11.8262 6.97972 -17.6208
ltibia 16.1739
lfoot -8.99953 2.54887
ltoes 4.81347
615
root 0.271178 17.8002 -1.87351 6.78872 -1.36558 -1.22896
lowerback -2.97549 -0.702245 -0.303416
upperback 2.9955 -1.00232 1.81922
thorax 4.80163 -0.543145 1.98085
lowerneck -11.0949 1.05663 -1.73028
upperneck 38.5306 2.25315 -0.556506
head 15.3501 0.614835 0.426955
rclavicle 2.68359e-015 -1.98785e-015
rhumerus -25.4455 -15.588 -81.2309
rradius 22.9472
rwrist 33.5256
rhand -20.6425 -26.3848
rfingers 7.12502
rthumb 5.71953 -56.2877
lclavicle 2.68359e-015 -1.98785e-015
lhumerus -21.4603 -6.66216 91.3341
lradius 17.6183
lwrist 4.71551
lhand -26.4301 -5.85003
lfingers 7.12502
lthumb 0.130355 24.1297
rfemur -14.0291 -2.45889 19.4512
rtibia 20.4236
rfoot -11.7827 -2.0565
rtoes 15.1262
lfemur -11.8125 6.98595 -17.6277
ltibia 16.1711
lfoot -9.00093 2.54976
ltoes 4.81584
